REM DIRINDEX 1\2,1\3,1\4,1\5
REM DIRNAME folder01,folder02,folder03,folder04,folder05
TITLE ""
FILE "1Q_t_1207-1216.mp3" MP3
  TRACK 01 AUDIO
    TITLE "3:cjc004_4526"
    INDEX 01 00:00:00
  TRACK 02 AUDIO
    TITLE "0:"
    INDEX 01 00:00:72
  TRACK 03 AUDIO
    TITLE "4:cjc004_4527"
    INDEX 01 00:01:22
  TRACK 04 AUDIO
    TITLE "0:"
    INDEX 01 00:02:49
  TRACK 05 AUDIO
    TITLE "5:cjc004_4528"
    INDEX 01 00:02:69
  TRACK 06 AUDIO
    TITLE "0:"
    INDEX 01 00:08:09
  TRACK 07 AUDIO
    TITLE "3:cjc004_4529"
    INDEX 01 00:08:56
  TRACK 08 AUDIO
    TITLE "0:"
    INDEX 01 00:09:69
  TRACK 09 AUDIO
    TITLE "4:cjc004_4530"
    INDEX 01 00:10:27
  TRACK 10 AUDIO
    TITLE "0:"
    INDEX 01 00:11:60
  TRACK 11 AUDIO
    TITLE "5:cjc004_4531"
    INDEX 01 00:12:09
  TRACK 12 AUDIO
    TITLE "0:"
    INDEX 01 00:16:46
  TRACK 13 AUDIO
    TITLE "3:cjc004_4532"
    INDEX 01 00:17:21
  TRACK 14 AUDIO
    TITLE "0:"
    INDEX 01 00:18:21
  TRACK 15 AUDIO
    TITLE "4:cjc004_4533"
    INDEX 01 00:18:54
  TRACK 16 AUDIO
    TITLE "0:"
    INDEX 01 00:20:30
  TRACK 17 AUDIO
    TITLE "5:cjc004_4534"
    INDEX 01 00:20:55
  TRACK 18 AUDIO
    TITLE "0:"
    INDEX 01 00:26:13
  TRACK 19 AUDIO
    TITLE "3:cjc004_4535"
    INDEX 01 00:26:64
  TRACK 20 AUDIO
    TITLE "0:"
    INDEX 01 00:27:69
  TRACK 21 AUDIO
    TITLE "4:cjc004_4536"
    INDEX 01 00:28:19
  TRACK 22 AUDIO
    TITLE "0:"
    INDEX 01 00:29:34
  TRACK 23 AUDIO
    TITLE "5:cjc004_4537"
    INDEX 01 00:29:58
  TRACK 24 AUDIO
    TITLE "0:"
    INDEX 01 00:34:61
  TRACK 25 AUDIO
    TITLE "3:cjc004_4538"
    INDEX 01 00:35:35
  TRACK 26 AUDIO
    TITLE "0:"
    INDEX 01 00:36:60
  TRACK 27 AUDIO
    TITLE "4:cjc004_4539"
    INDEX 01 00:37:10
  TRACK 28 AUDIO
    TITLE "0:"
    INDEX 01 00:38:67
  TRACK 29 AUDIO
    TITLE "5:cjc004_4540"
    INDEX 01 00:39:15
  TRACK 30 AUDIO
    TITLE "0:"
    INDEX 01 00:44:46
  TRACK 31 AUDIO
    TITLE "3:cjc004_4541"
    INDEX 01 00:45:24
  TRACK 32 AUDIO
    TITLE "0:"
    INDEX 01 00:46:27
  TRACK 33 AUDIO
    TITLE "4:cjc004_4542"
    INDEX 01 00:46:54
  TRACK 34 AUDIO
    TITLE "0:"
    INDEX 01 00:47:72
  TRACK 35 AUDIO
    TITLE "5:cjc004_4543"
    INDEX 01 00:48:18
  TRACK 36 AUDIO
    TITLE "0:"
    INDEX 01 00:51:52
  TRACK 37 AUDIO
    TITLE "3:cjc004_4544"
    INDEX 01 00:52:30
  TRACK 38 AUDIO
    TITLE "0:"
    INDEX 01 00:53:51
  TRACK 39 AUDIO
    TITLE "4:cjc004_4545"
    INDEX 01 00:54:01
  TRACK 40 AUDIO
    TITLE "0:"
    INDEX 01 00:55:51
  TRACK 41 AUDIO
    TITLE "5:cjc004_4546"
    INDEX 01 00:56:02
  TRACK 42 AUDIO
    TITLE "0:"
    INDEX 01 01:01:15
  TRACK 43 AUDIO
    TITLE "3:cjc004_4547"
    INDEX 01 01:01:68
  TRACK 44 AUDIO
    TITLE "0:"
    INDEX 01 01:02:73
  TRACK 45 AUDIO
    TITLE "4:cjc004_4548"
    INDEX 01 01:03:27
  TRACK 46 AUDIO
    TITLE "0:"
    INDEX 01 01:04:43
  TRACK 47 AUDIO
    TITLE "5:cjc004_4549"
    INDEX 01 01:04:64
  TRACK 48 AUDIO
    TITLE "0:"
    INDEX 01 01:10:57
  TRACK 49 AUDIO
    TITLE "3:cjc004_4550"
    INDEX 01 01:11:33
  TRACK 50 AUDIO
    TITLE "0:"
    INDEX 01 01:12:42
  TRACK 51 AUDIO
    TITLE "4:cjc004_4551"
    INDEX 01 01:12:66
  TRACK 52 AUDIO
    TITLE "0:"
    INDEX 01 01:14:21
  TRACK 53 AUDIO
    TITLE "5:cjc004_4552"
    INDEX 01 01:14:47
  TRACK 54 AUDIO
    TITLE "0:"
    INDEX 01 01:18:37
  TRACK 55 AUDIO
    TITLE "3:cjc004_4553"
    INDEX 01 01:19:13
  TRACK 56 AUDIO
    TITLE "0:"
    INDEX 01 01:20:42
  TRACK 57 AUDIO
    TITLE "4:cjc004_4554"
    INDEX 01 01:20:69
  TRACK 58 AUDIO
    TITLE "0:"
    INDEX 01 01:22:60
  TRACK 59 AUDIO
    TITLE "5:cjc004_4555"
    INDEX 01 01:23:07
  TRACK 60 AUDIO
    TITLE "0:"
    INDEX 01 01:28:00
